# xmcd
#
# Track frame offsets:
# 150
# 21766
# 37750
# 63955
# 97670
# 121423
# 144063
# 170894
# 188331
# 208640
# 228884
# 241337
# 262066
# 287893
#
# Disc length: 4035 seconds
#
# Revision: 0
# Processed by: cddbd v1.4PL0 Copyright (c) Steve Scherf et al.
# Submitted via: Axialis_AX_CDPlayer 2.6
#
DISCID=b40fc10e
DTITLE=Steely Dan - A Decade Of Steely Dan
DYEAR=1900
DGENRE=
TTITLE0=FM
TTITLE1=Black Friday
TTITLE2=Babylon Sisters
TTITLE3=Deacon Blues
TTITLE4=Bodhisattva
TTITLE5=Hey Nineteen
TTITLE6=Do It Again
TTITLE7=Peg
TTITLE8=Rikki Don't Lose That Number
TTITLE9=Reeling In The Years
TTITLE10=East St. Louis Toodle-Oo
TTITLE11=Kid Charlemagne
TTITLE12=My Old School
TTITLE13=Bad Sneakers
EXTD=
EXTT0=
EXTT1=
EXTT2=
EXTT3=
EXTT4=
EXTT5=
EXTT6=
EXTT7=
EXTT8=
EXTT9=
EXTT10=
EXTT11=
EXTT12=
EXTT13=
PLAYORDER=
